<?xml version="1.0" standalone="no"?><!DOCTYPE svg PUBLIC "-//W3C//DTD SVG 1.1//EN" "http://www.w3.org/Graphics/SVG/1.1/DTD/svg11.dtd"><svg t="1536563799160" class="icon" style="" viewBox="0 0 1024 1024" version="1.1" xmlns="http://www.w3.org/2000/svg" p-id="1955" xmlns:xlink="http://www.w3.org/1999/xlink" width="48" height="48"><defs><style type="text/css"></style></defs><path d="M512 670c104.8-0.3 189.7-85.2 190-190V288c0-104.9-85.1-190-190-190s-190 85.1-190 190v192c0.3 104.8 85.2 189.7 190 190zM382 288c0.3-71.7 58.3-129.7 130-130 71.7 0.3 129.7 58.3 130 130v192c0 71.8-58.2 130-130 130s-130-58.2-130-130V288z" p-id="1956" fill="#666666"></path><path d="M800 418.2c-16.6 0-30 13.4-30 30V480c0 142.5-115.5 258-258 258S254 622.5 254 480v-31.8c0-16.6-13.4-30-30-30s-30 13.4-30 30V480c0 165.5 126.4 301.5 288 316.6V896c0 16.6 13.4 30 30 30s30-13.4 30-30v-99.4C703.6 781.5 830 645.5 830 480v-31.8c0-16.6-13.4-30-30-30z" p-id="1957" fill="#666666"></path></svg>